<?xml version="1.0" encoding="utf-8"?>
<!-- Generator: Adobe Illustrator 16.2.0, SVG Export Plug-In . SVG Version: 6.00 Build 0)  -->
<!DOCTYPE svg PUBLIC "-//W3C//DTD SVG 1.1//EN" "http://www.w3.org/Graphics/SVG/1.1/DTD/svg11.dtd">
<svg version="1.1" id="Слой_1" xmlns="http://www.w3.org/2000/svg" xmlns:xlink="http://www.w3.org/1999/xlink" x="0px" y="0px"
	 width="255.121px" height="65.5px" viewBox="0 0 255.121 65.5" enable-background="new 0 0 255.121 65.5" xml:space="preserve">
<path fill="#00B4DC" d="M109.129,13.375l-8.88,33.209h-6.276l-6.62-24.431l-6.007,24.431h-6.158l-9.079-33.209h6.355l6.418,24.204
	l5.988-24.204h6.059l6.619,24.204l6.302-24.204H109.129z"/>
<path fill="#00B4DC" d="M119.252,46.584h-5.987V13.375h5.987V46.584z"/>
<path fill="#00B4DC" d="M151.637,46.584h-5.813l-12.604-21.218c-0.197-0.32-0.515-0.851-0.951-1.58
	c-0.192-0.325-0.494-0.834-0.897-1.533v24.332h-4.814v-33.21h6.615l11.632,19.557c0.098,0.166,0.803,1.358,2.114,3.58V13.375h4.722
	L151.637,46.584L151.637,46.584z"/>
<path fill="#00B4DC" d="M158.77,46.584V13.375h12.233c4.529,0,8.168,1.601,10.901,4.8c2.742,3.207,4.111,7.162,4.111,11.863
	c0,4.705-1.408,8.637-4.229,11.798c-2.824,3.168-6.865,4.748-12.119,4.748H158.77z M164.925,41.691h4.984
	c2.682,0,4.948-1.002,6.817-3.019c1.86-2.011,2.793-5.004,2.793-8.974c0-3.246-0.813-5.991-2.442-8.239
	c-1.634-2.247-3.783-3.371-6.464-3.371h-5.688V41.691L164.925,41.691z"/>
<path fill="#00B4DC" d="M212.496,46.584h-21.58V13.375h21.359v4.938h-15.377v9.005h12.354v4.813h-12.354v9.299h15.598V46.584
	L212.496,46.584z"/>
<path fill="#00B4DC" d="M243.542,46.584h-6.328l-5.155-13.654h-8.422v13.654h-5.984V13.375h14.406c4.004,0,6.946,0.901,8.83,2.711
	c1.885,1.811,2.823,4.147,2.823,7.021c0,4.264-1.993,7.203-5.983,8.809L243.542,46.584z M223.637,28.143h7.444
	c2.157,0,3.765-0.458,4.817-1.365c1.056-0.908,1.582-2.154,1.582-3.744c0-1.461-0.521-2.644-1.56-3.543
	c-1.039-0.901-2.491-1.348-4.354-1.348h-7.934L223.637,28.143L223.637,28.143z"/>
<path fill="#00B4DC" d="M11.342,44.891c0,0,25.299,0.308,21.978-13.417c0,0-0.811,10.387-23.401,1.94
	C9.918,33.415,6.812,40.734,11.342,44.891z"/>
<path fill="#00B4DC" d="M55.324,14.284c0,0-25.301-0.307-21.98,13.418c0,0,0.811-10.39,23.403-1.943
	C56.748,25.758,59.854,18.44,55.324,14.284z"/>
<path fill="#00B4DC" d="M48.667,51.637c0,0,0.307-25.299-13.42-21.978c0,0,10.389,0.81,1.942,23.401
	C37.188,53.061,44.509,56.166,48.667,51.637z"/>
<path fill="#00B4DC" d="M18.058,7.657c0,0-0.307,25.299,13.418,21.977c0,0-10.389-0.811-1.944-23.398
	C29.532,6.233,22.213,3.125,18.058,7.657z"/>
<path fill="#00B4DC" d="M28.564,55.975c0,0,18.104-17.67,6.051-25.022c0,0,6.772,7.916-15.174,17.916
	C19.441,48.867,22.418,56.238,28.564,55.975z"/>
<path fill="#00B4DC" d="M38.016,3.234c0,0-18.102,17.67-6.049,25.027c0,0-6.775-7.919,15.171-17.92
	C47.138,10.342,44.16,2.969,38.016,3.234z"/>
<path fill="#00B4DC" d="M59.724,34.352c0,0-17.671-18.104-25.029-6.051c0,0,7.92-6.771,17.922,15.172
	C52.617,43.473,59.99,40.492,59.724,34.352z"/>
<path fill="#00B4DC" d="M6.981,24.897c0,0,17.671,18.105,25.027,6.053c0,0-7.918,6.771-17.918-15.172
	C14.09,15.778,6.718,18.754,6.981,24.897z"/>
<path fill="#00B4DC" d="M248.146,15.917c0,0.711-0.254,1.319-0.76,1.829c-0.51,0.513-1.111,0.765-1.818,0.765
	c-0.715,0-1.324-0.252-1.832-0.765c-0.512-0.51-0.762-1.121-0.762-1.834c0-0.707,0.25-1.321,0.758-1.83
	c0.506-0.51,1.121-0.764,1.844-0.764c0.707,0,1.313,0.254,1.814,0.764C247.895,14.59,248.146,15.204,248.146,15.917z
	 M247.684,15.913c0-0.596-0.207-1.107-0.623-1.535c-0.416-0.428-0.91-0.645-1.486-0.645c-0.596,0-1.1,0.215-1.516,0.642
	c-0.416,0.429-0.625,0.942-0.625,1.538c0,0.604,0.213,1.119,0.627,1.546c0.422,0.428,0.918,0.639,1.5,0.639
	c0.58,0,1.078-0.21,1.498-0.639C247.475,17.032,247.684,16.515,247.684,15.913z M246.859,17.409h-0.668l-0.482-1.205h-0.717v1.205
	h-0.643v-2.986h1.387c0.383,0,0.664,0.083,0.85,0.246c0.188,0.166,0.281,0.379,0.281,0.641c0,0.372-0.186,0.635-0.557,0.788
	L246.859,17.409z M244.992,15.727h0.654c0.375,0,0.557-0.142,0.557-0.427c0-0.272-0.17-0.409-0.512-0.409h-0.699V15.727
	L244.992,15.727z"/>
</svg>
